<?xml version="1.0" encoding="UTF-8"?>
<!DOCTYPE svg PUBLIC "-//W3C//DTD SVG 1.1//EN" "http://www.w3.org/Graphics/SVG/1.1/DTD/svg11.dtd">
<svg version="1.1" xmlns="http://www.w3.org/2000/svg" xmlns:xlink="http://www.w3.org/1999/xlink" x="0" y="0" width="99.012" height="99.802" viewBox="0, 0, 99.012, 99.802">
  <g id="Layer_1" transform="translate(-0.001, -0)">
    <path d="M0.001,23.25 L99.012,23.25 L99.012,74.972 L0.001,74.972 L0.001,23.25 z" fill="#000000"/>
    <path d="M24.707,3.255 C24.707,3.255 34.463,0 34.463,0 C34.463,0 43.707,16.85 43.707,16.85 C43.707,16.85 32.666,16.659 32.666,16.85 C32.666,17.041 24.707,3.447 24.707,3.255 z" fill="#000000"/>
    <path d="M77.606,96.451 C77.606,96.451 67.952,99.802 67.952,99.802 C67.952,99.802 58.806,82.452 58.806,82.452 C58.806,82.452 69.731,82.649 69.731,82.452 C69.731,82.255 77.606,96.253 77.606,96.451 z" fill="#000000"/>
  </g>
</svg>
