<?xml version="1.0" encoding="UTF-8"?>
<!DOCTYPE svg PUBLIC "-//W3C//DTD SVG 1.1//EN" "http://www.w3.org/Graphics/SVG/1.1/DTD/svg11.dtd">
<svg version="1.1" xmlns="http://www.w3.org/2000/svg" xmlns:xlink="http://www.w3.org/1999/xlink" x="0" y="0" width="100.013" height="130.5" viewBox="0, 0, 100.013, 130.5">
  <g id="Layer_1" transform="translate(-15.994, 7)">
    <path d="M16,31.5 C16,31.5 16.5,83 16,83 C15.5,83 66,83.5 66,83 C66,82.5 44.5,32 44.5,32 C44.5,32 15.5,32 16,31.5 z" fill="#000000"/>
    <path d="M116,83.222 C116,83.222 115.5,31.722 116,31.722 C116.5,31.722 66,31.222 66,31.722 C66,32.222 87.5,82.722 87.5,82.722 C87.5,82.722 116.5,82.722 116,83.222 z" fill="#000000"/>
    <g>
      <path d="M45.869,10 L88,106.5" fill="#000000"/>
      <path d="M45.869,10 L88,106.5" fill-opacity="0" stroke="#000000" stroke-width="8"/>
    </g>
  </g>
</svg>
